<?xml version="1.0" encoding="UTF-8" standalone="no"?>
<svg width="599px" height="70px" viewBox="0 0 599 70" version="1.1" xmlns="http://www.w3.org/2000/svg" xmlns:xlink="http://www.w3.org/1999/xlink" xmlns:sketch="http://www.bohemiancoding.com/sketch/ns">
    <!-- Generator: Sketch 3.2.2 (9983) - http://www.bohemiancoding.com/sketch -->
    <title>EDGEBADGE 2</title>
    <desc>Created with Sketch.</desc>
    <defs></defs>
    <g id="Page-1" stroke="none" stroke-width="1" fill="none" fill-rule="evenodd" sketch:type="MSPage">
        <g id="Desktop" sketch:type="MSArtboardGroup" transform="translate(-1393.000000, -819.000000)" fill="#2C5A73">
            <path d="M1439.86,821.595 L1439.86,832.14 L1404.425,832.14 L1404.425,849.715 L1436.25,849.715 L1436.25,859.69 L1404.425,859.69 L1404.425,877.455 L1441,877.455 L1441,888 L1393.215,888 L1393.215,821.595 L1439.86,821.595 Z M1505.6,830.2875 C1511.9967,836.082529 1515.195,844.141615 1515.195,854.465 C1515.195,864.788385 1512.0917,872.958303 1505.885,878.975 C1499.6783,884.991697 1490.1784,888 1477.385,888 L1455.345,888 L1455.345,821.595 L1478.145,821.595 C1490.05173,821.595 1499.2033,824.492471 1505.6,830.2875 L1505.6,830.2875 Z M1503.89,854.75 C1503.89,839.549924 1495.18175,831.95 1477.765,831.95 L1466.555,831.95 L1466.555,877.455 L1479,877.455 C1487.04337,877.455 1493.20248,875.539186 1497.4775,871.7075 C1501.75252,867.875814 1503.89,862.223371 1503.89,854.75 L1503.89,854.75 Z M1575.615,855.7 L1586.825,855.7 L1586.825,878.405 C1580.55497,885.308368 1571.59339,888.76 1559.94,888.76 C1550.12328,888.76 1541.90587,885.530032 1535.2875,879.07 C1528.66913,872.609968 1525.36,864.440049 1525.36,854.56 C1525.36,844.679951 1528.73247,836.4467 1535.4775,829.86 C1542.22253,823.2733 1550.37662,819.98 1559.94,819.98 C1569.50338,819.98 1577.45163,822.766639 1583.785,828.34 L1577.8,836.89 C1575.20332,834.673322 1572.59085,833.137504 1569.9625,832.2825 C1567.33415,831.427496 1564.27835,831 1560.795,831 C1554.08163,831 1548.44502,833.169145 1543.885,837.5075 C1539.32498,841.845855 1537.045,847.545798 1537.045,854.6075 C1537.045,861.669202 1539.26164,867.337479 1543.695,871.6125 C1548.12836,875.887521 1553.4958,878.025 1559.7975,878.025 C1566.0992,878.025 1571.37165,876.663347 1575.615,873.94 L1575.615,855.7 Z M1648.195,821.595 L1648.195,832.14 L1612.76,832.14 L1612.76,849.715 L1644.585,849.715 L1644.585,859.69 L1612.76,859.69 L1612.76,877.455 L1649.335,877.455 L1649.335,888 L1601.55,888 L1601.55,821.595 L1648.195,821.595 Z M1691.705,888 L1662.635,888 L1662.635,821.595 L1688.475,821.595 C1692.97169,821.595 1696.85082,822.133328 1700.1125,823.21 C1703.37418,824.286672 1705.82833,825.743324 1707.475,827.58 C1710.45168,831.000017 1711.94,834.863312 1711.94,839.17 C1711.94,844.363359 1710.26168,848.226654 1706.905,850.76 C1705.76499,851.646671 1704.97334,852.200832 1704.53,852.4225 C1704.08666,852.644168 1703.29501,853.008331 1702.155,853.515 C1706.27169,854.401671 1709.54915,856.254153 1711.9875,859.0725 C1714.42585,861.890847 1715.645,865.389979 1715.645,869.57 C1715.645,874.193356 1714.06168,878.278316 1710.895,881.825 C1707.22165,885.941687 1700.82505,888 1691.705,888 L1691.705,888 Z M1677.455,848.48 L1684.485,848.48 C1688.60169,848.48 1691.65749,848.036671 1693.6525,847.15 C1695.64751,846.263329 1696.645,844.347515 1696.645,841.4025 C1696.645,838.457485 1695.72668,836.510005 1693.89,835.56 C1692.05332,834.609995 1688.95002,834.135 1684.58,834.135 L1677.455,834.135 L1677.455,848.48 Z M1677.455,875.46 L1687.62,875.46 C1691.86335,875.46 1695.04582,874.937505 1697.1675,873.8925 C1699.28918,872.847495 1700.35,870.789182 1700.35,867.7175 C1700.35,864.645818 1699.22584,862.619172 1696.9775,861.6375 C1694.72916,860.655828 1691.13502,860.165 1686.195,860.165 L1677.455,860.165 L1677.455,875.46 Z M1774.64,888 L1768.465,873.655 L1740.63,873.655 L1734.455,888 L1718.685,888 L1747.375,821.595 L1761.72,821.595 L1790.41,888 L1774.64,888 Z M1754.595,841.355 L1746.235,860.64 L1762.86,860.64 L1754.595,841.355 Z M1848.835,830.2875 C1855.16836,836.082529 1858.335,844.141615 1858.335,854.465 C1858.335,864.788385 1855.24753,872.958303 1849.0725,878.975 C1842.89747,884.991697 1833.47673,888 1820.81,888 L1798.105,888 L1798.105,821.595 L1821.57,821.595 C1833.41339,821.595 1842.50164,824.492471 1848.835,830.2875 L1848.835,830.2875 Z M1837.9575,869.76 C1841.59918,866.339983 1843.42,861.368366 1843.42,854.845 C1843.42,848.321634 1841.59918,843.302518 1837.9575,839.7875 C1834.31582,836.272482 1828.7267,834.515 1821.19,834.515 L1812.925,834.515 L1812.925,874.89 L1822.33,874.89 C1829.1067,874.89 1834.31582,873.180017 1837.9575,869.76 L1837.9575,869.76 Z M1914.29,854.18 L1929.205,854.18 L1929.205,877.74 C1922.6183,885.086703 1913.49839,888.76 1901.845,888.76 C1892.09162,888.76 1883.90587,885.530032 1877.2875,879.07 C1870.66913,872.609968 1867.36,864.455883 1867.36,854.6075 C1867.36,844.759117 1870.73247,836.5417 1877.4775,829.955 C1884.22253,823.3683 1892.36079,820.075 1901.8925,820.075 C1911.42421,820.075 1919.70496,823.209969 1926.735,829.48 L1919.04,840.595 C1916.06332,837.99832 1913.32418,836.209172 1910.8225,835.2275 C1908.32082,834.245828 1905.61335,833.755 1902.7,833.755 C1897.06331,833.755 1892.31335,835.670814 1888.45,839.5025 C1884.58665,843.334186 1882.655,848.384969 1882.655,854.655 C1882.655,860.925031 1884.50748,865.944148 1888.2125,869.7125 C1891.91752,873.480852 1896.33497,875.365 1901.465,875.365 C1906.59503,875.365 1910.86998,874.383343 1914.29,872.42 L1914.29,854.18 Z M1990.29,821.595 L1990.29,834.8 L1957.23,834.8 L1957.23,848.48 L1986.965,848.48 L1986.965,861.115 L1957.23,861.115 L1957.23,874.89 L1991.335,874.89 L1991.335,888 L1942.41,888 L1942.41,821.595 L1990.29,821.595 Z" id="EDGEBADGE-2" sketch:type="MSShapeGroup"></path>
        </g>
    </g>
</svg>