<?xml version="1.0" encoding="UTF-8" standalone="no"?>
<svg width="426px" height="210px" viewBox="0 0 426 210" version="1.1" xmlns="http://www.w3.org/2000/svg" xmlns:xlink="http://www.w3.org/1999/xlink" xmlns:sketch="http://www.bohemiancoding.com/sketch/ns">
    <!-- Generator: Sketch 3.2.2 (9983) - http://www.bohemiancoding.com/sketch -->
    <title>people</title>
    <desc>Created with Sketch.</desc>
    <defs></defs>
    <g id="Page-1" stroke="none" stroke-width="1" fill="none" fill-rule="evenodd" sketch:type="MSPage">
        <g id="Desktop" sketch:type="MSArtboardGroup" transform="translate(-85.000000, -724.000000)" stroke="#9B9B9B" stroke-width="5">
            <g id="people" sketch:type="MSLayerGroup" transform="translate(88.000000, 727.000000)">
                <path d="M140,136 C140,103.966987 156.473635,76.3312579 180.266901,63.5545291 C174.490203,56.8206728 171,48.0679268 171,38.5 C171,17.2370371 188.237037,0 209.5,0 C230.762963,0 248,17.2370371 248,38.5 C248,47.8957537 244.634278,56.5054007 239.042722,63.1890514 L239.042722,63.1890514 C263.207112,75.7986654 280,103.658082 280,136 L140,136 Z" id="Oval-7" sketch:type="MSShapeGroup"></path>
                <path d="M280,204 C280,171.966987 296.473635,144.331258 320.266901,131.554529 C314.490203,124.820673 311,116.067927 311,106.5 C311,85.2370371 328.237037,68 349.5,68 C370.762963,68 388,85.2370371 388,106.5 C388,115.895754 384.634278,124.505401 379.042722,131.189051 L379.042722,131.189051 C403.207112,143.798665 420,171.658082 420,204 L280,204 Z" id="Oval-9" sketch:type="MSShapeGroup"></path>
                <path d="M0,204 C0,171.966987 16.4736348,144.331258 40.2669012,131.554529 C34.4902034,124.820673 31,116.067927 31,106.5 C31,85.2370371 48.2370371,68 69.5,68 C90.7629629,68 108,85.2370371 108,106.5 C108,115.895754 104.634278,124.505401 99.0427225,131.189051 L99.0427225,131.189051 C123.207112,143.798665 140,171.658082 140,204 L1.42108547e-14,204 Z" id="Oval-10" sketch:type="MSShapeGroup"></path>
            </g>
        </g>
    </g>
</svg>