<?xml version="1.0" encoding="UTF-8" standalone="no"?>
<svg width="200px" height="200px" viewBox="0 0 200 200" version="1.1" xmlns="http://www.w3.org/2000/svg" xmlns:xlink="http://www.w3.org/1999/xlink" xmlns:sketch="http://www.bohemiancoding.com/sketch/ns">
    <!-- Generator: Sketch 3.2.2 (9983) - http://www.bohemiancoding.com/sketch -->
    <title>p</title>
    <desc>Created with Sketch.</desc>
    <defs></defs>
    <g id="Page-1" stroke="none" stroke-width="1" fill="none" fill-rule="evenodd" sketch:type="MSPage">
        <path d="M0,0 L8,0 L8,8 L0,8 L0,0 Z M0,8 L8,8 L8,16 L0,16 L0,8 Z M0,16 L8,16 L8,24 L0,24 L0,16 Z M0,24 L8,24 L8,32 L0,32 L0,24 Z M0,32 L8,32 L8,40 L0,40 L0,32 Z M0,40 L8,40 L8,48 L0,48 L0,40 Z M0,48 L8,48 L8,56 L0,56 L0,48 Z M0,64 L8,64 L8,72 L0,72 L0,64 Z M0,88 L8,88 L8,96 L0,96 L0,88 Z M0,96 L8,96 L8,104 L0,104 L0,96 Z M0,144 L8,144 L8,152 L0,152 L0,144 Z M0,152 L8,152 L8,160 L0,160 L0,152 Z M0,160 L8,160 L8,168 L0,168 L0,160 Z M0,168 L8,168 L8,176 L0,176 L0,168 Z M0,176 L8,176 L8,184 L0,184 L0,176 Z M0,184 L8,184 L8,192 L0,192 L0,184 Z M0,192 L8,192 L8,200 L0,200 L0,192 Z M8,0 L16,0 L16,8 L8,8 L8,0 Z M8,48 L16,48 L16,56 L8,56 L8,48 Z M8,64 L16,64 L16,72 L8,72 L8,64 Z M8,72 L16,72 L16,80 L8,80 L8,72 Z M8,80 L16,80 L16,88 L8,88 L8,80 Z M8,88 L16,88 L16,96 L8,96 L8,88 Z M8,120 L16,120 L16,128 L8,128 L8,120 Z M8,128 L16,128 L16,136 L8,136 L8,128 Z M8,144 L16,144 L16,152 L8,152 L8,144 Z M8,192 L16,192 L16,200 L8,200 L8,192 Z M16,0 L24,0 L24,8 L16,8 L16,0 Z M16,16 L24,16 L24,24 L16,24 L16,16 Z M16,24 L24,24 L24,32 L16,32 L16,24 Z M16,32 L24,32 L24,40 L16,40 L16,32 Z M16,48 L24,48 L24,56 L16,56 L16,48 Z M16,72 L24,72 L24,80 L16,80 L16,72 Z M16,80 L24,80 L24,88 L16,88 L16,80 Z M16,96 L24,96 L24,104 L16,104 L16,96 Z M16,112 L24,112 L24,120 L16,120 L16,112 Z M16,120 L24,120 L24,128 L16,128 L16,120 Z M16,144 L24,144 L24,152 L16,152 L16,144 Z M16,160 L24,160 L24,168 L16,168 L16,160 Z M16,168 L24,168 L24,176 L16,176 L16,168 Z M16,176 L24,176 L24,184 L16,184 L16,176 Z M16,192 L24,192 L24,200 L16,200 L16,192 Z M24,0 L32,0 L32,8 L24,8 L24,0 Z M24,16 L32,16 L32,24 L24,24 L24,16 Z M24,24 L32,24 L32,32 L24,32 L24,24 Z M24,32 L32,32 L32,40 L24,40 L24,32 Z M24,48 L32,48 L32,56 L24,56 L24,48 Z M24,64 L32,64 L32,72 L24,72 L24,64 Z M24,72 L32,72 L32,80 L24,80 L24,72 Z M24,80 L32,80 L32,88 L24,88 L24,80 Z M24,112 L32,112 L32,120 L24,120 L24,112 Z M24,128 L32,128 L32,136 L24,136 L24,128 Z M24,144 L32,144 L32,152 L24,152 L24,144 Z M24,160 L32,160 L32,168 L24,168 L24,160 Z M24,168 L32,168 L32,176 L24,176 L24,168 Z M24,176 L32,176 L32,184 L24,184 L24,176 Z M24,192 L32,192 L32,200 L24,200 L24,192 Z M32,0 L40,0 L40,8 L32,8 L32,0 Z M32,16 L40,16 L40,24 L32,24 L32,16 Z M32,24 L40,24 L40,32 L32,32 L32,24 Z M32,32 L40,32 L40,40 L32,40 L32,32 Z M32,48 L40,48 L40,56 L32,56 L32,48 Z M32,64 L40,64 L40,72 L32,72 L32,64 Z M32,80 L40,80 L40,88 L32,88 L32,80 Z M32,88 L40,88 L40,96 L32,96 L32,88 Z M32,96 L40,96 L40,104 L32,104 L32,96 Z M32,112 L40,112 L40,120 L32,120 L32,112 Z M32,120 L40,120 L40,128 L32,128 L32,120 Z M32,144 L40,144 L40,152 L32,152 L32,144 Z M32,160 L40,160 L40,168 L32,168 L32,160 Z M32,168 L40,168 L40,176 L32,176 L32,168 Z M32,176 L40,176 L40,184 L32,184 L32,176 Z M32,192 L40,192 L40,200 L32,200 L32,192 Z M40,0 L48,0 L48,8 L40,8 L40,0 Z M40,48 L48,48 L48,56 L40,56 L40,48 Z M40,80 L48,80 L48,88 L40,88 L40,80 Z M40,96 L48,96 L48,104 L40,104 L40,96 Z M40,112 L48,112 L48,120 L40,120 L40,112 Z M40,120 L48,120 L48,128 L40,128 L40,120 Z M40,128 L48,128 L48,136 L40,136 L40,128 Z M40,144 L48,144 L48,152 L40,152 L40,144 Z M40,192 L48,192 L48,200 L40,200 L40,192 Z M48,0 L56,0 L56,8 L48,8 L48,0 Z M48,8 L56,8 L56,16 L48,16 L48,8 Z M48,16 L56,16 L56,24 L48,24 L48,16 Z M48,24 L56,24 L56,32 L48,32 L48,24 Z M48,32 L56,32 L56,40 L48,40 L48,32 Z M48,40 L56,40 L56,48 L48,48 L48,40 Z M48,48 L56,48 L56,56 L48,56 L48,48 Z M48,64 L56,64 L56,72 L48,72 L48,64 Z M48,80 L56,80 L56,88 L48,88 L48,80 Z M48,96 L56,96 L56,104 L48,104 L48,96 Z M48,112 L56,112 L56,120 L48,120 L48,112 Z M48,128 L56,128 L56,136 L48,136 L48,128 Z M48,144 L56,144 L56,152 L48,152 L48,144 Z M48,152 L56,152 L56,160 L48,160 L48,152 Z M48,160 L56,160 L56,168 L48,168 L48,160 Z M48,168 L56,168 L56,176 L48,176 L48,168 Z M48,176 L56,176 L56,184 L48,184 L48,176 Z M48,184 L56,184 L56,192 L48,192 L48,184 Z M48,192 L56,192 L56,200 L48,200 L48,192 Z M56,72 L64,72 L64,80 L56,80 L56,72 Z M56,88 L64,88 L64,96 L56,96 L56,88 Z M56,104 L64,104 L64,112 L56,112 L56,104 Z M56,120 L64,120 L64,128 L56,128 L56,120 Z M64,0 L72,0 L72,8 L64,8 L64,0 Z M64,48 L72,48 L72,56 L64,56 L64,48 Z M64,56 L72,56 L72,64 L64,64 L64,56 Z M64,80 L72,80 L72,88 L64,88 L64,80 Z M64,88 L72,88 L72,96 L64,96 L64,88 Z M64,104 L72,104 L72,112 L64,112 L64,104 Z M64,112 L72,112 L72,120 L64,120 L64,112 Z M64,128 L72,128 L72,136 L64,136 L64,128 Z M64,136 L72,136 L72,144 L64,144 L64,136 Z M64,160 L72,160 L72,168 L64,168 L64,160 Z M64,168 L72,168 L72,176 L64,176 L64,168 Z M64,184 L72,184 L72,192 L64,192 L64,184 Z M64,192 L72,192 L72,200 L64,200 L64,192 Z M72,0 L80,0 L80,8 L72,8 L72,0 Z M72,16 L80,16 L80,24 L72,24 L72,16 Z M72,40 L80,40 L80,48 L72,48 L72,40 Z M72,56 L80,56 L80,64 L72,64 L72,56 Z M72,64 L80,64 L80,72 L72,72 L72,64 Z M72,80 L80,80 L80,88 L72,88 L72,80 Z M72,96 L80,96 L80,104 L72,104 L72,96 Z M72,112 L80,112 L80,120 L72,120 L72,112 Z M72,120 L80,120 L80,128 L72,128 L72,120 Z M72,128 L80,128 L80,136 L72,136 L72,128 Z M72,136 L80,136 L80,144 L72,144 L72,136 Z M72,144 L80,144 L80,152 L72,152 L72,144 Z M72,160 L80,160 L80,168 L72,168 L72,160 Z M72,168 L80,168 L80,176 L72,176 L72,168 Z M72,176 L80,176 L80,184 L72,184 L72,176 Z M72,192 L80,192 L80,200 L72,200 L72,192 Z M80,0 L88,0 L88,8 L80,8 L80,0 Z M80,24 L88,24 L88,32 L80,32 L80,24 Z M80,32 L88,32 L88,40 L80,40 L80,32 Z M80,48 L88,48 L88,56 L80,56 L80,48 Z M80,72 L88,72 L88,80 L80,80 L80,72 Z M80,96 L88,96 L88,104 L80,104 L80,96 Z M80,104 L88,104 L88,112 L80,112 L80,104 Z M80,112 L88,112 L88,120 L80,120 L80,112 Z M80,120 L88,120 L88,128 L80,128 L80,120 Z M80,128 L88,128 L88,136 L80,136 L80,128 Z M80,144 L88,144 L88,152 L80,152 L80,144 Z M80,192 L88,192 L88,200 L80,200 L80,192 Z M88,0 L96,0 L96,8 L88,8 L88,0 Z M88,8 L96,8 L96,16 L88,16 L88,8 Z M88,16 L96,16 L96,24 L88,24 L88,16 Z M88,24 L96,24 L96,32 L88,32 L88,24 Z M88,32 L96,32 L96,40 L88,40 L88,32 Z M88,40 L96,40 L96,48 L88,48 L88,40 Z M88,128 L96,128 L96,136 L88,136 L88,128 Z M88,136 L96,136 L96,144 L88,144 L88,136 Z M88,152 L96,152 L96,160 L88,160 L88,152 Z M88,160 L96,160 L96,168 L88,168 L88,160 Z M88,176 L96,176 L96,184 L88,184 L88,176 Z M88,184 L96,184 L96,192 L88,192 L88,184 Z M88,192 L96,192 L96,200 L88,200 L88,192 Z M96,8 L104,8 L104,16 L96,16 L96,8 Z M96,32 L104,32 L104,40 L96,40 L96,32 Z M96,48 L104,48 L104,56 L96,56 L96,48 Z M96,56 L104,56 L104,64 L96,64 L96,56 Z M96,64 L104,64 L104,72 L96,72 L96,64 Z M96,80 L104,80 L104,88 L96,88 L96,80 Z M96,104 L104,104 L104,112 L96,112 L96,104 Z M96,120 L104,120 L104,128 L96,128 L96,120 Z M96,128 L104,128 L104,136 L96,136 L96,128 Z M96,144 L104,144 L104,152 L96,152 L96,144 Z M96,168 L104,168 L104,176 L96,176 L96,168 Z M96,184 L104,184 L104,192 L96,192 L96,184 Z M96,192 L104,192 L104,200 L96,200 L96,192 Z M104,0 L112,0 L112,8 L104,8 L104,0 Z M104,16 L112,16 L112,24 L104,24 L104,16 Z M104,24 L112,24 L112,32 L104,32 L104,24 Z M104,32 L112,32 L112,40 L104,40 L104,32 Z M104,40 L112,40 L112,48 L104,48 L104,40 Z M104,56 L112,56 L112,64 L104,64 L104,56 Z M104,80 L112,80 L112,88 L104,88 L104,80 Z M104,128 L112,128 L112,136 L104,136 L104,128 Z M104,152 L112,152 L112,160 L104,160 L104,152 Z M104,160 L112,160 L112,168 L104,168 L104,160 Z M104,168 L112,168 L112,176 L104,176 L104,168 Z M104,176 L112,176 L112,184 L104,184 L104,176 Z M104,184 L112,184 L112,192 L104,192 L104,184 Z M104,192 L112,192 L112,200 L104,200 L104,192 Z M112,8 L120,8 L120,16 L112,16 L112,8 Z M112,32 L120,32 L120,40 L112,40 L112,32 Z M112,40 L120,40 L120,48 L112,48 L112,40 Z M112,48 L120,48 L120,56 L112,56 L112,48 Z M112,64 L120,64 L120,72 L112,72 L112,64 Z M112,72 L120,72 L120,80 L112,80 L112,72 Z M112,80 L120,80 L120,88 L112,88 L112,80 Z M112,88 L120,88 L120,96 L112,96 L112,88 Z M112,104 L120,104 L120,112 L112,112 L112,104 Z M112,136 L120,136 L120,144 L112,144 L112,136 Z M112,144 L120,144 L120,152 L112,152 L112,144 Z M112,168 L120,168 L120,176 L112,176 L112,168 Z M120,24 L128,24 L128,32 L120,32 L120,24 Z M120,64 L128,64 L128,72 L120,72 L120,64 Z M120,72 L128,72 L128,80 L120,80 L120,72 Z M120,80 L128,80 L128,88 L120,88 L120,80 Z M120,88 L128,88 L128,96 L120,96 L120,88 Z M120,96 L128,96 L128,104 L120,104 L120,96 Z M120,104 L128,104 L128,112 L120,112 L120,104 Z M120,112 L128,112 L128,120 L120,120 L120,112 Z M120,128 L128,128 L128,136 L120,136 L120,128 Z M120,152 L128,152 L128,160 L120,160 L120,152 Z M120,160 L128,160 L128,168 L120,168 L120,160 Z M120,168 L128,168 L128,176 L120,176 L120,168 Z M120,176 L128,176 L128,184 L120,184 L120,176 Z M128,24 L136,24 L136,32 L128,32 L128,24 Z M128,48 L136,48 L136,56 L128,56 L128,48 Z M128,56 L136,56 L136,64 L128,64 L128,56 Z M128,64 L136,64 L136,72 L128,72 L128,64 Z M128,80 L136,80 L136,88 L128,88 L128,80 Z M128,96 L136,96 L136,104 L128,104 L128,96 Z M128,104 L136,104 L136,112 L128,112 L128,104 Z M128,112 L136,112 L136,120 L128,120 L128,112 Z M128,128 L136,128 L136,136 L128,136 L128,128 Z M128,136 L136,136 L136,144 L128,144 L128,136 Z M128,144 L136,144 L136,152 L128,152 L128,144 Z M128,152 L136,152 L136,160 L128,160 L128,152 Z M128,160 L136,160 L136,168 L128,168 L128,160 Z M128,168 L136,168 L136,176 L128,176 L128,168 Z M128,192 L136,192 L136,200 L128,200 L128,192 Z M136,112 L144,112 L144,120 L136,120 L136,112 Z M136,120 L144,120 L144,128 L136,128 L136,120 Z M136,128 L144,128 L144,136 L136,136 L136,128 Z M136,160 L144,160 L144,168 L136,168 L136,160 Z M136,168 L144,168 L144,176 L136,176 L136,168 Z M136,176 L144,176 L144,184 L136,184 L136,176 Z M136,184 L144,184 L144,192 L136,192 L136,184 Z M136,192 L144,192 L144,200 L136,200 L136,192 Z M144,0 L152,0 L152,8 L144,8 L144,0 Z M144,8 L152,8 L152,16 L144,16 L144,8 Z M144,16 L152,16 L152,24 L144,24 L144,16 Z M144,24 L152,24 L152,32 L144,32 L144,24 Z M144,32 L152,32 L152,40 L144,40 L144,32 Z M144,40 L152,40 L152,48 L144,48 L144,40 Z M144,48 L152,48 L152,56 L144,56 L144,48 Z M144,64 L152,64 L152,72 L144,72 L144,64 Z M144,80 L152,80 L152,88 L144,88 L144,80 Z M144,96 L152,96 L152,104 L144,104 L144,96 Z M144,112 L152,112 L152,120 L144,120 L144,112 Z M144,120 L152,120 L152,128 L144,128 L144,120 Z M144,128 L152,128 L152,136 L144,136 L144,128 Z M144,144 L152,144 L152,152 L144,152 L144,144 Z M144,160 L152,160 L152,168 L144,168 L144,160 Z M144,168 L152,168 L152,176 L144,176 L144,168 Z M144,184 L152,184 L152,192 L144,192 L144,184 Z M152,0 L160,0 L160,8 L152,8 L152,0 Z M152,48 L160,48 L160,56 L152,56 L152,48 Z M152,72 L160,72 L160,80 L152,80 L152,72 Z M152,88 L160,88 L160,96 L152,96 L152,88 Z M152,96 L160,96 L160,104 L152,104 L152,96 Z M152,120 L160,120 L160,128 L152,128 L152,120 Z M152,128 L160,128 L160,136 L152,136 L152,128 Z M152,160 L160,160 L160,168 L152,168 L152,160 Z M152,176 L160,176 L160,184 L152,184 L152,176 Z M152,184 L160,184 L160,192 L152,192 L152,184 Z M160,0 L168,0 L168,8 L160,8 L160,0 Z M160,16 L168,16 L168,24 L160,24 L160,16 Z M160,24 L168,24 L168,32 L160,32 L160,24 Z M160,32 L168,32 L168,40 L160,40 L160,32 Z M160,48 L168,48 L168,56 L160,56 L160,48 Z M160,72 L168,72 L168,80 L160,80 L160,72 Z M160,80 L168,80 L168,88 L160,88 L160,80 Z M160,104 L168,104 L168,112 L160,112 L160,104 Z M160,120 L168,120 L168,128 L160,128 L160,120 Z M160,128 L168,128 L168,136 L160,136 L160,128 Z M160,136 L168,136 L168,144 L160,144 L160,136 Z M160,144 L168,144 L168,152 L160,152 L160,144 Z M160,152 L168,152 L168,160 L160,160 L160,152 Z M160,160 L168,160 L168,168 L160,168 L160,160 Z M160,176 L168,176 L168,184 L160,184 L160,176 Z M160,184 L168,184 L168,192 L160,192 L160,184 Z M168,0 L176,0 L176,8 L168,8 L168,0 Z M168,16 L176,16 L176,24 L168,24 L168,16 Z M168,24 L176,24 L176,32 L168,32 L168,24 Z M168,32 L176,32 L176,40 L168,40 L168,32 Z M168,48 L176,48 L176,56 L168,56 L168,48 Z M168,72 L176,72 L176,80 L168,80 L168,72 Z M168,80 L176,80 L176,88 L168,88 L168,80 Z M168,88 L176,88 L176,96 L168,96 L168,88 Z M168,112 L176,112 L176,120 L168,120 L168,112 Z M168,144 L176,144 L176,152 L168,152 L168,144 Z M168,160 L176,160 L176,168 L168,168 L168,160 Z M168,168 L176,168 L176,176 L168,176 L168,168 Z M168,192 L176,192 L176,200 L168,200 L168,192 Z M176,0 L184,0 L184,8 L176,8 L176,0 Z M176,16 L184,16 L184,24 L176,24 L176,16 Z M176,24 L184,24 L184,32 L176,32 L176,24 Z M176,32 L184,32 L184,40 L176,40 L176,32 Z M176,48 L184,48 L184,56 L176,56 L176,48 Z M176,72 L184,72 L184,80 L176,80 L176,72 Z M176,88 L184,88 L184,96 L176,96 L176,88 Z M176,112 L184,112 L184,120 L176,120 L176,112 Z M176,120 L184,120 L184,128 L176,128 L176,120 Z M176,128 L184,128 L184,136 L176,136 L176,128 Z M176,176 L184,176 L184,184 L176,184 L176,176 Z M176,184 L184,184 L184,192 L176,192 L176,184 Z M184,0 L192,0 L192,8 L184,8 L184,0 Z M184,48 L192,48 L192,56 L184,56 L184,48 Z M184,72 L192,72 L192,80 L184,80 L184,72 Z M184,88 L192,88 L192,96 L184,96 L184,88 Z M184,104 L192,104 L192,112 L184,112 L184,104 Z M184,112 L192,112 L192,120 L184,120 L184,112 Z M184,128 L192,128 L192,136 L184,136 L184,128 Z M184,136 L192,136 L192,144 L184,144 L184,136 Z M184,160 L192,160 L192,168 L184,168 L184,160 Z M184,168 L192,168 L192,176 L184,176 L184,168 Z M184,176 L192,176 L192,184 L184,184 L184,176 Z M184,184 L192,184 L192,192 L184,192 L184,184 Z M192,0 L200,0 L200,8 L192,8 L192,0 Z M192,8 L200,8 L200,16 L192,16 L192,8 Z M192,16 L200,16 L200,24 L192,24 L192,16 Z M192,24 L200,24 L200,32 L192,32 L192,24 Z M192,32 L200,32 L200,40 L192,40 L192,32 Z M192,40 L200,40 L200,48 L192,48 L192,40 Z M192,48 L200,48 L200,56 L192,56 L192,48 Z M192,64 L200,64 L200,72 L192,72 L192,64 Z M192,80 L200,80 L200,88 L192,88 L192,80 Z M192,88 L200,88 L200,96 L192,96 L192,88 Z M192,96 L200,96 L200,104 L192,104 L192,96 Z M192,112 L200,112 L200,120 L192,120 L192,112 Z M192,120 L200,120 L200,128 L192,128 L192,120 Z M192,144 L200,144 L200,152 L192,152 L192,144 Z M192,160 L200,160 L200,168 L192,168 L192,160 Z M192,168 L200,168 L200,176 L192,176 L192,168 Z M192,176 L200,176 L200,184 L192,184 L192,176 Z M192,184 L200,184 L200,192 L192,192 L192,184 Z M192,192 L200,192 L200,200 L192,200 L192,192 Z" id="p" fill="#9B9B9B" sketch:type="MSShapeGroup"></path>
    </g>
</svg>